# xmcd
#
# Track frame offsets: 
#        150
#        33074
#        59156
#        77193
#        94707
#        106814
#        144088
#        172965
#        189793
#        211902
#        227009
#        250627
#        279626
#        300505
#        303180
#        309173
#        320749
#
# Disc length: 4524 seconds
#
# Revision: 0
# Processed by: cddbd v1.5.1PL0 Copyright (c) Steve Scherf et al.
# Submitted via: ExactAudioCopy v0.95a3
#
DISCID=d011aa11
DTITLE=Alexis Korner - Bremen 1971
DYEAR=1900
DGENRE=
TTITLE0=Mighty Mighty Spade Or Whitey
TTITLE1=WIll The Circle Be Unbroken
TTITLE2=Going Down Slow
TTITLE3=[These Days]
TTITLE4=The Cannonball Blues
TTITLE5=You Got The Power
TTITLE6=Lo And Behold
TTITLE7=Six Days On The Road
TTITLE8=The Wind Cries Mary
TTITLE9=Lies Lies Lies ARD 75
TTITLE10=Robert Johnson ARD 75
TTITLE11=Spoonful ARD ca 76
TTITLE12=Get Off Of My Cloud ARD ca 76
TTITLE13=Sympathie 4 #1
TTITLE14=[Magara] Sympathie 4
TTITLE15=Sympathie 4 #3
TTITLE16=Jimi Alexis Korner [slide] - Hoochie Coochie Man 67
EXTD=
EXTT0=
EXTT1=
EXTT2=
EXTT3=
EXTT4=
EXTT5=
EXTT6=
EXTT7=
EXTT8=
EXTT9=
EXTT10=
EXTT11=
EXTT12=
EXTT13=
EXTT14=
EXTT15=
EXTT16=
PLAYORDER=
